<?xml version="1.0" encoding="utf-8"?>
<!-- Generator: Adobe Illustrator 19.2.1, SVG Export Plug-In . SVG Version: 6.00 Build 0)  -->
<svg version="1.1" id="Capa_1" xmlns="http://www.w3.org/2000/svg" xmlns:xlink="http://www.w3.org/1999/xlink" x="0px" y="0px"
	 viewBox="0 0 388.5 512" style="enable-background:new 0 0 388.5 512;" xml:space="preserve">
<style type="text/css">
	.st0{fill:#E54065;}
	.st1{fill:#ED7892;}
</style>
<g>
	<g>
		<g>
			<path class="st0" d="M231.2,154.3c-20.3,0-36.3,22.7-36.3,22.7s-15.1-22.7-36.3-22.7c-20.7,0-37.6,17.1-38.7,37.7
				c-0.6,11.7,3.1,20.5,8.4,28.6c10.6,16.1,66.6,53.1,66.6,53.1s55.8-36.9,66.5-53.1c5.3-8.1,9.1-16.9,8.4-28.6
				C268.8,171.3,251.9,154.3,231.2,154.3L231.2,154.3z"/>
		</g>
	</g>
	<g>
		<path class="st1" d="M347.4,52.1h-97.2C248.5,23.1,224.3,0,194.9,0s-53.6,23.1-55.3,52.1H42.4c-17.8,0-32.3,14.5-32.3,32.3v395.3
			c0,17.8,14.5,32.3,32.3,32.3h305c17.8,0,32.3-14.5,32.3-32.3V84.4C379.7,66.6,365.2,52.1,347.4,52.1L347.4,52.1z M149.9,72.1
			c2.9,0,5.7-1.3,7.6-3.5s2.7-5.1,2.3-8c-0.3-1.7-0.4-3.5-0.4-5.2c0-19.5,15.9-35.4,35.4-35.4s35.4,15.9,35.4,35.4
			c0,1.7-0.1,3.5-0.4,5.2c-0.4,2.9,0.4,5.8,2.3,8s4.7,3.5,7.6,3.5H279v23.8H110.8V72.1H149.9z M315.9,115.9v332.3h-242V115.9
			L315.9,115.9z M359.7,479.7c0,6.8-5.5,12.3-12.3,12.3h-305c-6.8,0-12.3-5.5-12.3-12.3V84.4c0-6.8,5.5-12.3,12.3-12.3h48.4v23.8
			H63.9c-5.5,0-10,4.5-10,10v352.3c0,5.5,4.5,10,10,10h262c5.5,0,10-4.5,10-10V105.9c0-5.5-4.5-10-10-10H299V72.1h48.4
			c6.8,0,12.3,5.5,12.3,12.3L359.7,479.7L359.7,479.7z"/>
		<path class="st1" d="M113.1,337.7h77.2c5.5,0,10-4.5,10-10s-4.5-10-10-10h-77.2c-5.5,0-10,4.5-10,10S107.6,337.7,113.1,337.7
			L113.1,337.7z"/>
		<path class="st1" d="M245.2,337.7h31.5c5.5,0,10-4.5,10-10s-4.5-10-10-10h-31.5c-5.5,0-10,4.5-10,10S239.7,337.7,245.2,337.7z"/>
		<path class="st1" d="M113.1,391.7h77.2c5.5,0,10-4.5,10-10s-4.5-10-10-10h-77.2c-5.5,0-10,4.5-10,10S107.6,391.7,113.1,391.7
			L113.1,391.7z"/>
		<path class="st1" d="M245.2,391.7h31.5c5.5,0,10-4.5,10-10s-4.5-10-10-10h-31.5c-5.5,0-10,4.5-10,10S239.7,391.7,245.2,391.7z"/>
	</g>
</g>
</svg>
