<?xml version="1.0" encoding="utf-8"?>
<!-- Generator: Adobe Illustrator 19.2.1, SVG Export Plug-In . SVG Version: 6.00 Build 0)  -->
<svg version="1.1" id="Layer_1" xmlns="http://www.w3.org/2000/svg" xmlns:xlink="http://www.w3.org/1999/xlink" x="0px" y="0px"
	 viewBox="0 0 80.2 80.2" style="enable-background:new 0 0 80.2 80.2;" xml:space="preserve">
<style type="text/css">
	.st0{fill:#385185;}
	.st1{fill:#FFFFFF;}
</style>
<path class="st0" d="M76.8,0H3.4C1.5,0,0,1.5,0,3.4v73.4c0,1.9,1.5,3.4,3.4,3.4h73.4c1.9,0,3.4-1.5,3.4-3.4V3.4
	C80.2,1.5,78.7,0,76.8,0z"/>
<path class="st1" d="M43,81.2V51.7c0-1.6-1.3-2.8-2.8-2.8h-5.7c-0.8,0-1.5-0.7-1.5-1.5V39c0-0.8,0.7-1.5,1.5-1.5h5.7
	c1.6,0,2.8-1.3,2.8-2.8V22.9c0-5.7,4.6-10.3,10.3-10.3h13.1c0.8,0,1.5,0.7,1.5,1.5v8c0,0.8-0.7,1.5-1.5,1.5h-7.6
	c-1.6,0-2.8,1.3-2.8,2.8v8.5c0,1.6,1.3,2.8,2.8,2.8h7.6c0.8,0,1.5,0.7,1.5,1.5v8.1c0,0.8-0.7,1.5-1.5,1.5h-8.4
	c-1.6,0-2.8,1.3-2.8,2.8v29.5H43z"/>
</svg>
