<?xml version="1.0" encoding="utf-8"?>
<!-- Generator: Adobe Illustrator 19.2.1, SVG Export Plug-In . SVG Version: 6.00 Build 0)  -->
<svg version="1.1" id="Layer_1" xmlns="http://www.w3.org/2000/svg" xmlns:xlink="http://www.w3.org/1999/xlink" x="0px" y="0px"
	 viewBox="0 0 1039 412" style="enable-background:new 0 0 1039 412;" xml:space="preserve">
<style type="text/css">
	.st0{fill:#4285F4;}
	.st1{fill:#34A853;}
	.st2{fill:#FBBC04;}
	.st3{fill:#EA4335;}
	.st4{fill:#808080;}
</style>
<g>
	<path class="st0" d="M368.4,211c0-12-1-24-3-35.8H199.3V243h95.1c-3.9,21.9-16.6,41.2-35.2,53.5v44h56.7
		C349.2,309.9,368.4,264.6,368.4,211L368.4,211z"/>
	<path class="st1" d="M199.3,383c47.5,0,87.5-15.6,116.7-42.5l-56.7-44c-15.8,10.7-36.2,16.8-59.9,16.8c-45.9,0-84.9-31-98.8-72.6
		H42v45.3C71.9,345.5,132.7,383,199.3,383z"/>
	<path class="st2" d="M100.5,240.7c-7.4-21.9-7.4-45.5,0-67.4V128H42c-25,49.7-25,108.3,0,158.1L100.5,240.7z"/>
	<path class="st3" d="M199.3,100.6c25.1-0.4,49.4,9.1,67.5,26.4l50.3-50.3C285.3,46.9,243,30.4,199.3,30.9
		c-66.6,0-127.4,37.5-157.3,97l58.5,45.3C114.4,131.6,153.4,100.6,199.3,100.6z"/>
</g>
<g>
	<path class="st4" d="M481.3,221.9v64.1h-21.6V122.3h60.4c17.9,0,32,4.6,42.1,13.7c10.2,9.1,15.2,21.3,15.2,36.3
		c0,15.9-5,28.1-14.9,36.7c-9.9,8.6-24.2,12.9-42.7,12.9H481.3z M481.3,204.3h38.8c11.5,0,20.4-2.7,26.5-8.2
		c6.1-5.4,9.2-13.3,9.2-23.6c0-9.8-3.1-17.6-9.2-23.4c-6.1-5.9-14.6-8.9-25.3-9.1h-40V204.3z"/>
	<path class="st4" d="M624.4,286.1h-20.8V113.3h20.8V286.1z"/>
	<path class="st4" d="M732.8,286.1c-1.2-2.4-2.2-6.7-2.9-12.8c-9.7,10-21.2,15.1-34.6,15.1c-12,0-21.8-3.4-29.5-10.2
		c-7.7-6.8-11.5-15.4-11.5-25.8c0-12.7,4.8-22.5,14.5-29.5c9.6-7,23.2-10.5,40.7-10.5h20.2v-9.6c0-7.3-2.2-13.1-6.5-17.4
		c-4.4-4.3-10.8-6.5-19.2-6.5c-7.4,0-13.6,1.9-18.7,5.6c-5,3.8-7.5,8.3-7.5,13.6h-20.9c0-6.1,2.2-11.9,6.5-17.6
		c4.3-5.7,10.2-10.1,17.5-13.4c7.4-3.3,15.5-4.9,24.4-4.9c14,0,25,3.5,33,10.5c7.9,7,12.1,16.7,12.4,29v56c0,11.2,1.4,20.1,4.3,26.7
		v1.8H732.8z M698.3,270.2c6.5,0,12.7-1.7,18.6-5.1c5.8-3.4,10.1-7.8,12.7-13.2v-25h-16.3c-25.5,0-38.2,7.5-38.2,22.4
		c0,6.5,2.2,11.6,6.5,15.3C685.8,268.4,691.4,270.2,698.3,270.2z"/>
	<path class="st4" d="M802.6,164.4l0.7,15.3c9.3-11.7,21.4-17.5,36.4-17.5c25.7,0,38.7,14.5,38.9,43.5v80.4h-20.8v-80.5
		c-0.1-8.8-2.1-15.3-6-19.5c-3.9-4.2-10.1-6.3-18.4-6.3c-6.7,0-12.7,1.8-17.8,5.4c-5.1,3.6-9.1,8.3-11.9,14.2v86.7H783V164.4H802.6z
		"/>
	<path class="st4" d="M980.9,253.8c0-5.6-2.1-10-6.4-13.1c-4.2-3.1-11.6-5.8-22.2-8c-10.5-2.2-18.9-4.9-25.1-8.1
		c-6.2-3.1-10.8-6.9-13.7-11.2c-3-4.3-4.4-9.5-4.4-15.5c0-10,4.2-18.4,12.7-25.3c8.4-6.9,19.2-10.3,32.3-10.3
		c13.8,0,25,3.6,33.6,10.7c8.6,7.1,12.9,16.2,12.9,27.3h-20.9c0-5.7-2.4-10.6-7.3-14.7c-4.8-4.1-10.9-6.2-18.3-6.2
		c-7.6,0-13.5,1.7-17.8,4.9c-4.3,3.3-6.4,7.6-6.4,12.9c0,5,2,8.8,6,11.4c4,2.6,11.2,5,21.5,7.3c10.4,2.3,18.8,5.1,25.3,8.3
		c6.4,3.2,11.2,7.1,14.3,11.6c3.1,4.5,4.7,10.1,4.7,16.6c0,10.9-4.4,19.6-13,26.2c-8.7,6.6-20,9.8-33.9,9.8
		c-9.7,0-18.4-1.7-25.9-5.2c-7.5-3.4-13.4-8.3-17.6-14.5c-4.2-6.2-6.4-12.9-6.4-20.1h20.8c0.4,7,3.2,12.5,8.4,16.6
		c5.2,4.1,12.1,6.1,20.6,6.1c7.9,0,14.2-1.6,19-4.8C978.5,263.4,980.9,259.1,980.9,253.8z"/>
</g>
<g>
</g>
<g>
</g>
<g>
</g>
<g>
</g>
<g>
</g>
<g>
</g>
</svg>
