<?xml version="1.0" encoding="utf-8"?>
<!-- Generator: Adobe Illustrator 19.2.1, SVG Export Plug-In . SVG Version: 6.00 Build 0)  -->
<svg version="1.1" id="Layer_1" xmlns="http://www.w3.org/2000/svg" xmlns:xlink="http://www.w3.org/1999/xlink" x="0px" y="0px"
	 viewBox="0 0 200 200" style="enable-background:new 0 0 200 200;" xml:space="preserve">
<style type="text/css">
	.st0{fill:#2D323B;stroke:#3B424E;stroke-width:3;stroke-miterlimit:10;}
</style>
<path class="st0" d="M185.4,145.9c0,0-6.1,14.1-14.1,18.5c0,0-2.7,1.6-1.2,2.9c2.8,2.5,6.4,15.6,7,19.8c0.5,4.3,1.5,15.6,1.5,15.6
	l-157,0.7l2.9-26.6l10.2-34.6l23.3-8.9v-3.7c0,0-5.6,0.3-12.4-6.3l-6,3.6l-0.5-9.3h-13l4-13l-15.3-5.2l12-11.3c0,0-3.1-8-18.2-11
	l15-12.6L10.2,46l24.6-1.7c0,0,0.3-5.6-5.1-19.7c0,0,9.7,1.1,16.4,6.3c0,0,5.3-0.3,7.6-22.9c0,0,6.4,4.7,14.9,17.7
	c0,0,10.2-11.7,21.3-16c0,0-0.7,22.9,1.7,25.3s19.3-6.6,19.3-6.6S100.2,46,100.6,48.5c0.4,2.4,17.6,3.7,17.6,3.7l-13.8,14.1l16,7.7
	l-21,11.3l7.7,7.8l-8.6,7.4l0.8,7.4l-6.8,2.3c0,0,2.4,6,4.7,6.9c2.3,0.9-8.9,4.3-8.9,4.3s-4.4,6.6-10.2,8.6v4.4l18,4.9
	c0,0,10.6,50.8,18,53.6c1.5-0.3,1.7-2.3,1.7-2.3s2-18.5,9.2-23.1c0,0,4.1-1.6,0-3.7c-4.1-2.1-8.4-4.8-12.8-12c0,0-9.2,0.8-9.6-7.4
	c0,0,0-5.1,3.9-5.5l-0.4-3.2c0,0,0.3-7.7,0.3-16.9c0-1.2-2.1-37.6,41.8-40s41.9,52.8,41.9,52.8s2.4-1,4.8,2.6s-0.4,10.1-4,11.1
	S185.4,145.9,185.4,145.9z"/>
</svg>
