<?xml version="1.0" encoding="utf-8"?>
<!-- Generator: Adobe Illustrator 19.2.1, SVG Export Plug-In . SVG Version: 6.00 Build 0)  -->
<svg version="1.1" id="Layer_1" xmlns="http://www.w3.org/2000/svg" xmlns:xlink="http://www.w3.org/1999/xlink" x="0px" y="0px"
	 viewBox="0 0 284.8 200.5" style="enable-background:new 0 0 284.8 200.5;" xml:space="preserve">
<style type="text/css">
	.st0{fill:#4285F4;}
	.st1{fill:none;stroke:#4285F4;stroke-miterlimit:10;}
	.st2{fill:none;}
</style>
<path class="st0" d="M9,177.4H2.7c-0.5,0-0.9-0.4-0.9-0.9l0,0c0-0.5,0.4-0.9,0.9-0.9H9c0.5,0,0.9,0.4,0.9,0.9l0,0
	C9.8,177,9.4,177.4,9,177.4z"/>
<path class="st0" d="M269.1,177.4H49.3c-0.5,0-0.9-0.4-0.9-0.9l0,0c0-0.5,0.4-0.9,0.9-0.9h219.8c0.5,0,0.9,0.4,0.9,0.9l0,0
	C270,177,269.6,177.4,269.1,177.4z"/>
<path class="st0" d="M282.1,177.7h-7.4c-0.5,0-0.9-0.4-0.9-0.9l0,0c0-0.5,0.4-0.9,0.9-0.9h7.4c0.5,0,0.9,0.4,0.9,0.9l0,0
	C283,177.3,282.6,177.7,282.1,177.7z"/>
<path class="st0" d="M30,197.1h-6.3c-0.5,0-0.9-0.4-0.9-0.9l0,0c0-0.5,0.4-0.9,0.9-0.9H30c0.5,0,0.9,0.4,0.9,0.9l0,0
	C30.8,196.7,30.4,197.1,30,197.1z"/>
<path class="st0" d="M41.8,188.4h-6.3c-0.5,0-0.9-0.4-0.9-0.9l0,0c0-0.5,0.4-0.9,0.9-0.9h6.3c0.5,0,0.9,0.4,0.9,0.9l0,0
	C42.7,188,42.3,188.4,41.8,188.4z"/>
<path class="st0" d="M66.3,188.4H53.7c-0.5,0-0.9-0.4-0.9-0.9l0,0c0-0.5,0.4-0.9,0.9-0.9h12.6c0.5,0,0.9,0.4,0.9,0.9l0,0
	C67.2,188,66.8,188.4,66.3,188.4z"/>
<path class="st0" d="M252.5,188h-24.9c-0.5,0-0.9-0.4-0.9-0.9l0,0c0-0.5,0.4-0.9,0.9-0.9h24.9c0.5,0,0.9,0.4,0.9,0.9l0,0
	C253.3,187.6,252.9,188,252.5,188z"/>
<path class="st0" d="M218.1,188H211c-0.5,0-0.9-0.4-0.9-0.9l0,0c0-0.5,0.4-0.9,0.9-0.9h7.1c0.5,0,0.9,0.4,0.9,0.9l0,0
	C219,187.6,218.6,188,218.1,188z"/>
<path class="st0" d="M262.5,197.1h-5.9c-0.5,0-0.9-0.4-0.9-0.9l0,0c0-0.5,0.4-0.9,0.9-0.9h5.9c0.5,0,0.9,0.4,0.9,0.9l0,0
	C263.3,196.7,262.9,197.1,262.5,197.1z"/>
<path class="st0" d="M17.9,174.7L45.5,109c0.4-0.9,1.4-1.4,2.4-1.1l17.5,5.8c1,0.3,1.6,1.5,1.2,2.5l-24,59.9c-0.3,0.7-1,1.2-1.8,1.2
	h-21C18.3,177.4,17.4,176,17.9,174.7z"/>
<path class="st0" d="M60,175.6l-1.1-19.1c0-0.8,0.5-1.4,1.3-1.5l21.2-1.1c0.8,0,1.4,0.5,1.5,1.3l1.2,20.7L60,175.6z"/>
<path class="st0" d="M184,176.5l34.8-80.8c0.2-0.5,0.8-0.7,1.3-0.6l17.9,5.6c0.6,0.2,0.9,0.8,0.7,1.4l-26.5,66.4
	c-0.3,0.7,0.3,1.5,1,1.4l18.3-1.1c0.6,0,1-0.5,1-1.1l-1.1-23.7c0-0.6,0.4-1.1,1-1.1l21.4-1.1c0.6,0,1.1,0.4,1.1,1l1,23.1
	c0,0.6,0.5,1,1.1,1l9.9-0.4c0.5,0,1,0.4,1.1,0.9l1.4,8.6L184,176.5z"/>
<path class="st1" d="M93.4,175.6c0,0-5.2-59.1,41-57.9c46.2,1.2,44.2,58.3,44.2,58.3l-25.3-0.1L93.4,175.6z"/>
<path class="st1" d="M153.3,176.9c0,0,0.5-38.7-17.3-39.5c-17.8-0.8-19.8,24.3-18.5,39.2L153.3,176.9z"/>
<path class="st2" d="M-193.3-3.5"/>
<g>
	<g>
		<g>
			<path class="st0" d="M117.9,26.2c-19.5,6.3-30.1,27.3-23.8,46.8c7.9,24.1,50.9,49.3,52.8,50.4c1.7,1,3.9,0.3,4.7-1.5
				c0.9-1.9,20.9-47.6,13.1-71.8C158.4,30.5,137.4,19.9,117.9,26.2z M135.2,79.2c-9.8,3.2-20.3-2.2-23.5-12s2.2-20.3,12-23.5
				c9.8-3.2,20.3,2.2,23.5,12C150.3,65.5,145,76,135.2,79.2z"/>
		</g>
	</g>
	<g>
	</g>
	<g>
	</g>
	<g>
	</g>
	<g>
	</g>
	<g>
	</g>
	<g>
	</g>
	<g>
	</g>
	<g>
	</g>
	<g>
	</g>
	<g>
	</g>
	<g>
	</g>
	<g>
	</g>
	<g>
	</g>
	<g>
	</g>
	<g>
	</g>
</g>
<path class="st0" d="M120.6,104.3l0.5,19.2c0,0,0.1,1.6,1.7,1.6s1.8-1.8,1.8-1.8l-1.1-18.6L120.6,104.3z"/>
<path class="st0" d="M160.4,94.3c0,0,4.1,2.7,3.3,4.6c-0.8,1.9-3.3,5.1-3.3,5.1s-1,1.1,0,2.1s2.3,0,2.3,0l4.1-5.7c0,0,1.6-3.4,0-4.9
	s-5.1-4.7-5.1-4.7L160.4,94.3z"/>
<path class="st0" d="M153.3,36.3l6.7-12.5c0,0,1.1-0.7,1.9,0c0.8,0.7,1.3,1.2,0.7,2.3c-0.7,1.1-6.5,11.5-6.5,11.5L153.3,36.3z"/>
<path class="st0" d="M93.4,56.8l-10.9-1.3c0,0-1.6-0.1-1.8,1.3s0,1.7,0.8,1.9S93,59.6,93,59.6L93.4,56.8z"/>
<circle class="st0" cx="121.2" cy="55.5" r="1.4"/>
<circle class="st0" cx="134.6" cy="50.3" r="1.2"/>
<path class="st0" d="M125.4,61c0,0,5.1-0.3,8.9-3.2c3.8-2.8,2.1,6-2,7C128.3,65.8,122.9,61.9,125.4,61z"/>
<path class="st1" d="M38.6,14.3h25.3c0,0,1.8-0.1,1.8-2.2S64.2,7.3,62,7.3c-2.2,0-2.2,0-2.2,0s-0.3-5.9-7.7-5.9s-7.8,5.9-7.8,5.9
	h-3.3c0,0-4.1-0.3-4.4,3.7C36.4,14.2,37.1,14.3,38.6,14.3z"/>
<path class="st1" d="M205.7,14.3h20.7c0,0,1.5-0.1,1.5-2s-1.3-4.5-3.1-4.5s-1.8,0-1.8,0s-0.3-5.5-6.3-5.5s-6.3,5.5-6.3,5.5h-2.7
	c0,0-3.3-0.3-3.6,3.5C203.9,14.2,204.5,14.3,205.7,14.3z"/>
<g>
</g>
<g>
</g>
<g>
</g>
<g>
</g>
<g>
</g>
<g>
</g>
</svg>
